<svg width="158" height="75" viewBox="0 0 158 75" fill="none" xmlns="http://www.w3.org/2000/svg">
<g filter="url(#filter0_d_2_1006)">
<path d="M15.64 30.28C13.5867 30.28 11.7467 29.9467 10.12 29.28C8.49333 28.6133 7.18667 27.6267 6.2 26.32C5.24 25.0133 4.73333 23.44 4.68 21.6H11.96C12.0667 22.64 12.4267 23.44 13.04 24C13.6533 24.5333 14.4533 24.8 15.44 24.8C16.4533 24.8 17.2533 24.5733 17.84 24.12C18.4267 23.64 18.72 22.9867 18.72 22.16C18.72 21.4667 18.48 20.8933 18 20.44C17.5467 19.9867 16.9733 19.6133 16.28 19.32C15.6133 19.0267 14.6533 18.6933 13.4 18.32C11.5867 17.76 10.1067 17.2 8.96 16.64C7.81333 16.08 6.82667 15.2533 6 14.16C5.17333 13.0667 4.76 11.64 4.76 9.88C4.76 7.26667 5.70667 5.22667 7.6 3.76C9.49333 2.26667 11.96 1.52 15 1.52C18.0933 1.52 20.5867 2.26667 22.48 3.76C24.3733 5.22667 25.3867 7.28 25.52 9.92H18.12C18.0667 9.01333 17.7333 8.30667 17.12 7.8C16.5067 7.26667 15.72 7 14.76 7C13.9333 7 13.2667 7.22667 12.76 7.68C12.2533 8.10666 12 8.73333 12 9.56C12 10.4667 12.4267 11.1733 13.28 11.68C14.1333 12.1867 15.4667 12.7333 17.28 13.32C19.0933 13.9333 20.56 14.52 21.68 15.08C22.8267 15.64 23.8133 16.4533 24.64 17.52C25.4667 18.5867 25.88 19.96 25.88 21.64C25.88 23.24 25.4667 24.6933 24.64 26C23.84 27.3067 22.6667 28.3467 21.12 29.12C19.5733 29.8933 17.7467 30.28 15.64 30.28ZM51.1294 18.48C51.1294 19.12 51.0894 19.7867 51.0094 20.48H35.5294C35.636 21.8667 36.076 22.9333 36.8494 23.68C37.6494 24.4 38.6227 24.76 39.7694 24.76C41.476 24.76 42.6627 24.04 43.3294 22.6H50.6094C50.236 24.0667 49.556 25.3867 48.5694 26.56C47.6094 27.7333 46.396 28.6533 44.9294 29.32C43.4627 29.9867 41.8227 30.32 40.0094 30.32C37.8227 30.32 35.876 29.8533 34.1694 28.92C32.4627 27.9867 31.1294 26.6533 30.1694 24.92C29.2094 23.1867 28.7294 21.16 28.7294 18.84C28.7294 16.52 29.196 14.4933 30.1294 12.76C31.0894 11.0267 32.4227 9.69333 34.1294 8.76C35.836 7.82667 37.796 7.36 40.0094 7.36C42.1694 7.36 44.0894 7.81333 45.7694 8.72C47.4494 9.62667 48.756 10.92 49.6894 12.6C50.6494 14.28 51.1294 16.24 51.1294 18.48ZM44.1294 16.68C44.1294 15.5067 43.7294 14.5733 42.9294 13.88C42.1294 13.1867 41.1294 12.84 39.9294 12.84C38.7827 12.84 37.8094 13.1733 37.0094 13.84C36.236 14.5067 35.756 15.4533 35.5694 16.68H44.1294ZM53.3778 18.84C53.3778 16.52 53.8445 14.4933 54.7778 12.76C55.7378 11.0267 57.0578 9.69333 58.7378 8.76C60.4445 7.82667 62.3911 7.36 64.5778 7.36C67.3778 7.36 69.7111 8.09333 71.5778 9.56C73.4711 11.0267 74.7111 13.0933 75.2978 15.76H68.0178C67.4045 14.0533 66.2178 13.2 64.4578 13.2C63.2045 13.2 62.2045 13.6933 61.4578 14.68C60.7111 15.64 60.3378 17.0267 60.3378 18.84C60.3378 20.6533 60.7111 22.0533 61.4578 23.04C62.2045 24 63.2045 24.48 64.4578 24.48C66.2178 24.48 67.4045 23.6267 68.0178 21.92H75.2978C74.7111 24.5333 73.4711 26.5867 71.5778 28.08C69.6845 29.5733 67.3511 30.32 64.5778 30.32C62.3911 30.32 60.4445 29.8533 58.7378 28.92C57.0578 27.9867 55.7378 26.6533 54.7778 24.92C53.8445 23.1867 53.3778 21.16 53.3778 18.84ZM89.1166 30.32C86.9299 30.32 84.9566 29.8533 83.1966 28.92C81.4632 27.9867 80.0899 26.6533 79.0766 24.92C78.0899 23.1867 77.5966 21.16 77.5966 18.84C77.5966 16.5467 78.1032 14.5333 79.1166 12.8C80.1299 11.04 81.5166 9.69333 83.2766 8.76C85.0366 7.82667 87.0099 7.36 89.1966 7.36C91.3832 7.36 93.3566 7.82667 95.1166 8.76C96.8766 9.69333 98.2632 11.04 99.2766 12.8C100.29 14.5333 100.797 16.5467 100.797 18.84C100.797 21.1333 100.277 23.16 99.2366 24.92C98.2232 26.6533 96.8232 27.9867 95.0366 28.92C93.2766 29.8533 91.3032 30.32 89.1166 30.32ZM89.1166 24.4C90.4232 24.4 91.5299 23.92 92.4366 22.96C93.3699 22 93.8366 20.6267 93.8366 18.84C93.8366 17.0533 93.3832 15.68 92.4766 14.72C91.5966 13.76 90.5032 13.28 89.1966 13.28C87.8632 13.28 86.7566 13.76 85.8766 14.72C84.9966 15.6533 84.5566 17.0267 84.5566 18.84C84.5566 20.6267 84.9832 22 85.8366 22.96C86.7166 23.92 87.8099 24.4 89.1166 24.4ZM118.025 7.44C120.639 7.44 122.719 8.29333 124.265 10C125.839 11.68 126.625 14 126.625 16.96V30H119.825V17.88C119.825 16.3867 119.439 15.2267 118.665 14.4C117.892 13.5733 116.852 13.16 115.545 13.16C114.239 13.16 113.199 13.5733 112.425 14.4C111.652 15.2267 111.265 16.3867 111.265 17.88V30H104.425V7.68H111.265V10.64C111.959 9.65333 112.892 8.88 114.065 8.32C115.239 7.73333 116.559 7.44 118.025 7.44ZM130.018 18.8C130.018 16.5067 130.445 14.4933 131.298 12.76C132.178 11.0267 133.365 9.69333 134.858 8.76C136.352 7.82667 138.018 7.36 139.858 7.36C141.325 7.36 142.658 7.66666 143.858 8.28C145.085 8.89333 146.045 9.72 146.738 10.76V0.4H153.578V30H146.738V26.8C146.098 27.8667 145.178 28.72 143.978 29.36C142.805 30 141.432 30.32 139.858 30.32C138.018 30.32 136.352 29.8533 134.858 28.92C133.365 27.96 132.178 26.6133 131.298 24.88C130.445 23.12 130.018 21.0933 130.018 18.8ZM146.738 18.84C146.738 17.1333 146.258 15.7867 145.298 14.8C144.365 13.8133 143.218 13.32 141.858 13.32C140.498 13.32 139.338 13.8133 138.378 14.8C137.445 15.76 136.978 17.0933 136.978 18.8C136.978 20.5067 137.445 21.8667 138.378 22.88C139.338 23.8667 140.498 24.36 141.858 24.36C143.218 24.36 144.365 23.8667 145.298 22.88C146.258 21.8933 146.738 20.5467 146.738 18.84ZM29.8 37.92V66H22.96V54.44H12.32V66H5.48V37.92H12.32V48.92H22.96V37.92H29.8ZM33.3778 54.8C33.3778 52.5067 33.8045 50.4933 34.6578 48.76C35.5378 47.0267 36.7245 45.6933 38.2178 44.76C39.7111 43.8267 41.3778 43.36 43.2178 43.36C44.7911 43.36 46.1645 43.68 47.3378 44.32C48.5378 44.96 49.4578 45.8 50.0978 46.84V43.68H56.9378V66H50.0978V62.84C49.4311 63.88 48.4978 64.72 47.2978 65.36C46.1245 66 44.7511 66.32 43.1778 66.32C41.3645 66.32 39.7111 65.8533 38.2178 64.92C36.7245 63.96 35.5378 62.6133 34.6578 60.88C33.8045 59.12 33.3778 57.0933 33.3778 54.8ZM50.0978 54.84C50.0978 53.1333 49.6178 51.7867 48.6578 50.8C47.7245 49.8133 46.5778 49.32 45.2178 49.32C43.8578 49.32 42.6978 49.8133 41.7378 50.8C40.8045 51.76 40.3378 53.0933 40.3378 54.8C40.3378 56.5067 40.8045 57.8667 41.7378 58.88C42.6978 59.8667 43.8578 60.36 45.2178 60.36C46.5778 60.36 47.7245 59.8667 48.6578 58.88C49.6178 57.8933 50.0978 56.5467 50.0978 54.84ZM75.4863 43.44C78.0996 43.44 80.1796 44.2933 81.7263 46C83.2996 47.68 84.0863 50 84.0863 52.96V66H77.2863V53.88C77.2863 52.3867 76.8996 51.2267 76.1263 50.4C75.3529 49.5733 74.3129 49.16 73.0063 49.16C71.6996 49.16 70.6596 49.5733 69.8863 50.4C69.1129 51.2267 68.7263 52.3867 68.7263 53.88V66H61.8863V43.68H68.7263V46.64C69.4196 45.6533 70.3529 44.88 71.5263 44.32C72.6996 43.7333 74.0196 43.44 75.4863 43.44ZM87.4794 54.8C87.4794 52.5067 87.906 50.4933 88.7594 48.76C89.6394 47.0267 90.826 45.6933 92.3194 44.76C93.8127 43.8267 95.4794 43.36 97.3194 43.36C98.786 43.36 100.119 43.6667 101.319 44.28C102.546 44.8933 103.506 45.72 104.199 46.76V36.4H111.039V66H104.199V62.8C103.559 63.8667 102.639 64.72 101.439 65.36C100.266 66 98.8927 66.32 97.3194 66.32C95.4794 66.32 93.8127 65.8533 92.3194 64.92C90.826 63.96 89.6394 62.6133 88.7594 60.88C87.906 59.12 87.4794 57.0933 87.4794 54.8ZM104.199 54.84C104.199 53.1333 103.719 51.7867 102.759 50.8C101.826 49.8133 100.679 49.32 99.3194 49.32C97.9594 49.32 96.7994 49.8133 95.8394 50.8C94.906 51.76 94.4394 53.0933 94.4394 54.8C94.4394 56.5067 94.906 57.8667 95.8394 58.88C96.7994 59.8667 97.9594 60.36 99.3194 60.36C100.679 60.36 101.826 59.8667 102.759 58.88C103.719 57.8933 104.199 56.5467 104.199 54.84ZM119.188 66.32C117.988 66.32 117.001 65.9733 116.228 65.28C115.481 64.56 115.108 63.68 115.108 62.64C115.108 61.5733 115.481 60.68 116.228 59.96C117.001 59.24 117.988 58.88 119.188 58.88C120.361 58.88 121.321 59.24 122.068 59.96C122.841 60.68 123.228 61.5733 123.228 62.64C123.228 63.68 122.841 64.56 122.068 65.28C121.321 65.9733 120.361 66.32 119.188 66.32Z" fill="#7126B5"/>
</g>
<defs>
<filter id="filter0_d_2_1006" x="0.679688" y="0.399902" width="156.898" height="73.9199" filterUnits="userSpaceOnUse" color-interpolation-filters="sRGB">
<feFlood flood-opacity="0" result="BackgroundImageFix"/>
<feColorMatrix in="SourceAlpha" type="matrix" values="0 0 0 0 0 0 0 0 0 0 0 0 0 0 0 0 0 0 127 0" result="hardAlpha"/>
<feOffset dy="4"/>
<feGaussianBlur stdDeviation="2"/>
<feComposite in2="hardAlpha" operator="out"/>
<feColorMatrix type="matrix" values="0 0 0 0 0 0 0 0 0 0 0 0 0 0 0 0 0 0 0.25 0"/>
<feBlend mode="normal" in2="BackgroundImageFix" result="effect1_dropShadow_2_1006"/>
<feBlend mode="normal" in="SourceGraphic" in2="effect1_dropShadow_2_1006" result="shape"/>
</filter>
</defs>
</svg>
