<svg width="150" height="67" viewBox="0 0 150 67" fill="none" xmlns="http://www.w3.org/2000/svg">
<path d="M11.64 30.28C9.58667 30.28 7.74667 29.9467 6.12 29.28C4.49333 28.6133 3.18667 27.6267 2.2 26.32C1.24 25.0133 0.733333 23.44 0.68 21.6H7.96C8.06667 22.64 8.42667 23.44 9.04 24C9.65333 24.5333 10.4533 24.8 11.44 24.8C12.4533 24.8 13.2533 24.5733 13.84 24.12C14.4267 23.64 14.72 22.9867 14.72 22.16C14.72 21.4667 14.48 20.8933 14 20.44C13.5467 19.9867 12.9733 19.6133 12.28 19.32C11.6133 19.0267 10.6533 18.6933 9.4 18.32C7.58667 17.76 6.10667 17.2 4.96 16.64C3.81333 16.08 2.82667 15.2533 2 14.16C1.17333 13.0667 0.76 11.64 0.76 9.88C0.76 7.26667 1.70667 5.22667 3.6 3.76C5.49333 2.26667 7.96 1.52 11 1.52C14.0933 1.52 16.5867 2.26667 18.48 3.76C20.3733 5.22667 21.3867 7.28 21.52 9.92H14.12C14.0667 9.01333 13.7333 8.30667 13.12 7.8C12.5067 7.26667 11.72 7 10.76 7C9.93333 7 9.26667 7.22667 8.76 7.68C8.25333 8.10666 8 8.73333 8 9.56C8 10.4667 8.42667 11.1733 9.28 11.68C10.1333 12.1867 11.4667 12.7333 13.28 13.32C15.0933 13.9333 16.56 14.52 17.68 15.08C18.8267 15.64 19.8133 16.4533 20.64 17.52C21.4667 18.5867 21.88 19.96 21.88 21.64C21.88 23.24 21.4667 24.6933 20.64 26C19.84 27.3067 18.6667 28.3467 17.12 29.12C15.5733 29.8933 13.7467 30.28 11.64 30.28ZM47.1294 18.48C47.1294 19.12 47.0894 19.7867 47.0094 20.48H31.5294C31.636 21.8667 32.076 22.9333 32.8494 23.68C33.6494 24.4 34.6227 24.76 35.7694 24.76C37.476 24.76 38.6627 24.04 39.3294 22.6H46.6094C46.236 24.0667 45.556 25.3867 44.5694 26.56C43.6094 27.7333 42.396 28.6533 40.9294 29.32C39.4627 29.9867 37.8227 30.32 36.0094 30.32C33.8227 30.32 31.876 29.8533 30.1694 28.92C28.4627 27.9867 27.1294 26.6533 26.1694 24.92C25.2094 23.1867 24.7294 21.16 24.7294 18.84C24.7294 16.52 25.196 14.4933 26.1294 12.76C27.0894 11.0267 28.4227 9.69333 30.1294 8.76C31.836 7.82667 33.796 7.36 36.0094 7.36C38.1694 7.36 40.0894 7.81333 41.7694 8.72C43.4494 9.62667 44.756 10.92 45.6894 12.6C46.6494 14.28 47.1294 16.24 47.1294 18.48ZM40.1294 16.68C40.1294 15.5067 39.7294 14.5733 38.9294 13.88C38.1294 13.1867 37.1294 12.84 35.9294 12.84C34.7827 12.84 33.8094 13.1733 33.0094 13.84C32.236 14.5067 31.756 15.4533 31.5694 16.68H40.1294ZM49.3778 18.84C49.3778 16.52 49.8445 14.4933 50.7778 12.76C51.7378 11.0267 53.0578 9.69333 54.7378 8.76C56.4445 7.82667 58.3911 7.36 60.5778 7.36C63.3778 7.36 65.7111 8.09333 67.5778 9.56C69.4711 11.0267 70.7111 13.0933 71.2978 15.76H64.0178C63.4045 14.0533 62.2178 13.2 60.4578 13.2C59.2045 13.2 58.2045 13.6933 57.4578 14.68C56.7111 15.64 56.3378 17.0267 56.3378 18.84C56.3378 20.6533 56.7111 22.0533 57.4578 23.04C58.2045 24 59.2045 24.48 60.4578 24.48C62.2178 24.48 63.4045 23.6267 64.0178 21.92H71.2978C70.7111 24.5333 69.4711 26.5867 67.5778 28.08C65.6845 29.5733 63.3511 30.32 60.5778 30.32C58.3911 30.32 56.4445 29.8533 54.7378 28.92C53.0578 27.9867 51.7378 26.6533 50.7778 24.92C49.8445 23.1867 49.3778 21.16 49.3778 18.84ZM85.1166 30.32C82.9299 30.32 80.9566 29.8533 79.1966 28.92C77.4632 27.9867 76.0899 26.6533 75.0766 24.92C74.0899 23.1867 73.5966 21.16 73.5966 18.84C73.5966 16.5467 74.1032 14.5333 75.1166 12.8C76.1299 11.04 77.5166 9.69333 79.2766 8.76C81.0366 7.82667 83.0099 7.36 85.1966 7.36C87.3832 7.36 89.3566 7.82667 91.1166 8.76C92.8766 9.69333 94.2632 11.04 95.2766 12.8C96.2899 14.5333 96.7966 16.5467 96.7966 18.84C96.7966 21.1333 96.2766 23.16 95.2366 24.92C94.2232 26.6533 92.8232 27.9867 91.0366 28.92C89.2766 29.8533 87.3032 30.32 85.1166 30.32ZM85.1166 24.4C86.4232 24.4 87.5299 23.92 88.4366 22.96C89.3699 22 89.8366 20.6267 89.8366 18.84C89.8366 17.0533 89.3832 15.68 88.4766 14.72C87.5966 13.76 86.5032 13.28 85.1966 13.28C83.8632 13.28 82.7566 13.76 81.8766 14.72C80.9966 15.6533 80.5566 17.0267 80.5566 18.84C80.5566 20.6267 80.9832 22 81.8366 22.96C82.7166 23.92 83.8099 24.4 85.1166 24.4ZM114.025 7.44C116.639 7.44 118.719 8.29333 120.265 10C121.839 11.68 122.625 14 122.625 16.96V30H115.825V17.88C115.825 16.3867 115.439 15.2267 114.665 14.4C113.892 13.5733 112.852 13.16 111.545 13.16C110.239 13.16 109.199 13.5733 108.425 14.4C107.652 15.2267 107.265 16.3867 107.265 17.88V30H100.425V7.68H107.265V10.64C107.959 9.65333 108.892 8.88 110.065 8.32C111.239 7.73333 112.559 7.44 114.025 7.44ZM126.018 18.8C126.018 16.5067 126.445 14.4933 127.298 12.76C128.178 11.0267 129.365 9.69333 130.858 8.76C132.352 7.82667 134.018 7.36 135.858 7.36C137.325 7.36 138.658 7.66666 139.858 8.28C141.085 8.89333 142.045 9.72 142.738 10.76V0.4H149.578V30H142.738V26.8C142.098 27.8667 141.178 28.72 139.978 29.36C138.805 30 137.432 30.32 135.858 30.32C134.018 30.32 132.352 29.8533 130.858 28.92C129.365 27.96 128.178 26.6133 127.298 24.88C126.445 23.12 126.018 21.0933 126.018 18.8ZM142.738 18.84C142.738 17.1333 142.258 15.7867 141.298 14.8C140.365 13.8133 139.218 13.32 137.858 13.32C136.498 13.32 135.338 13.8133 134.378 14.8C133.445 15.76 132.978 17.0933 132.978 18.8C132.978 20.5067 133.445 21.8667 134.378 22.88C135.338 23.8667 136.498 24.36 137.858 24.36C139.218 24.36 140.365 23.8667 141.298 22.88C142.258 21.8933 142.738 20.5467 142.738 18.84ZM25.8 37.92V66H18.96V54.44H8.32V66H1.48V37.92H8.32V48.92H18.96V37.92H25.8ZM29.3778 54.8C29.3778 52.5067 29.8045 50.4933 30.6578 48.76C31.5378 47.0267 32.7245 45.6933 34.2178 44.76C35.7111 43.8267 37.3778 43.36 39.2178 43.36C40.7911 43.36 42.1645 43.68 43.3378 44.32C44.5378 44.96 45.4578 45.8 46.0978 46.84V43.68H52.9378V66H46.0978V62.84C45.4311 63.88 44.4978 64.72 43.2978 65.36C42.1245 66 40.7511 66.32 39.1778 66.32C37.3645 66.32 35.7111 65.8533 34.2178 64.92C32.7245 63.96 31.5378 62.6133 30.6578 60.88C29.8045 59.12 29.3778 57.0933 29.3778 54.8ZM46.0978 54.84C46.0978 53.1333 45.6178 51.7867 44.6578 50.8C43.7245 49.8133 42.5778 49.32 41.2178 49.32C39.8578 49.32 38.6978 49.8133 37.7378 50.8C36.8045 51.76 36.3378 53.0933 36.3378 54.8C36.3378 56.5067 36.8045 57.8667 37.7378 58.88C38.6978 59.8667 39.8578 60.36 41.2178 60.36C42.5778 60.36 43.7245 59.8667 44.6578 58.88C45.6178 57.8933 46.0978 56.5467 46.0978 54.84ZM71.4863 43.44C74.0996 43.44 76.1796 44.2933 77.7263 46C79.2996 47.68 80.0863 50 80.0863 52.96V66H73.2863V53.88C73.2863 52.3867 72.8996 51.2267 72.1263 50.4C71.3529 49.5733 70.3129 49.16 69.0063 49.16C67.6996 49.16 66.6596 49.5733 65.8863 50.4C65.1129 51.2267 64.7263 52.3867 64.7263 53.88V66H57.8863V43.68H64.7263V46.64C65.4196 45.6533 66.3529 44.88 67.5263 44.32C68.6996 43.7333 70.0196 43.44 71.4863 43.44ZM83.4794 54.8C83.4794 52.5067 83.906 50.4933 84.7594 48.76C85.6394 47.0267 86.826 45.6933 88.3194 44.76C89.8127 43.8267 91.4794 43.36 93.3194 43.36C94.786 43.36 96.1194 43.6667 97.3194 44.28C98.546 44.8933 99.506 45.72 100.199 46.76V36.4H107.039V66H100.199V62.8C99.5594 63.8667 98.6394 64.72 97.4394 65.36C96.266 66 94.8927 66.32 93.3194 66.32C91.4794 66.32 89.8127 65.8533 88.3194 64.92C86.826 63.96 85.6394 62.6133 84.7594 60.88C83.906 59.12 83.4794 57.0933 83.4794 54.8ZM100.199 54.84C100.199 53.1333 99.7194 51.7867 98.7594 50.8C97.826 49.8133 96.6794 49.32 95.3194 49.32C93.9594 49.32 92.7994 49.8133 91.8394 50.8C90.906 51.76 90.4394 53.0933 90.4394 54.8C90.4394 56.5067 90.906 57.8667 91.8394 58.88C92.7994 59.8667 93.9594 60.36 95.3194 60.36C96.6794 60.36 97.826 59.8667 98.7594 58.88C99.7194 57.8933 100.199 56.5467 100.199 54.84ZM115.188 66.32C113.988 66.32 113.001 65.9733 112.228 65.28C111.481 64.56 111.108 63.68 111.108 62.64C111.108 61.5733 111.481 60.68 112.228 59.96C113.001 59.24 113.988 58.88 115.188 58.88C116.361 58.88 117.321 59.24 118.068 59.96C118.841 60.68 119.228 61.5733 119.228 62.64C119.228 63.68 118.841 64.56 118.068 65.28C117.321 65.9733 116.361 66.32 115.188 66.32Z" fill="white"/>
</svg>
